<?xml version="1.0" encoding="utf-8"?>
<!-- Generator: Adobe Illustrator 16.0.0, SVG Export Plug-In . SVG Version: 6.00 Build 0)  -->
<!DOCTYPE svg PUBLIC "-//W3C//DTD SVG 1.1//EN" "http://www.w3.org/Graphics/SVG/1.1/DTD/svg11.dtd">
<svg version="1.1" id="Layer_1" xmlns="http://www.w3.org/2000/svg" xmlns:xlink="http://www.w3.org/1999/xlink" x="0px" y="0px"
	 width="300px" height="300px" viewBox="0 0 300 300" enable-background="new 0 0 300 300" xml:space="preserve">
<g>
	<line fill="none" stroke="#000000" stroke-miterlimit="10" x1="78" y1="213.5" x2="209" y2="213.5"/>
	<g>
		<g>
			<path d="M90.011,102.936c4.671,21.196,15.086,40.868,16.713,62.739c0.561,7.534,0.218,15.299-0.221,22.829
				c-0.432,7.417-0.946,16.45-5.396,22.729c-1.121,1.582,1.482,3.078,2.591,1.514c4.072-5.745,4.833-13.455,5.5-20.267
				c0.812-8.28,0.88-16.737,0.619-25.051c-0.715-22.769-12.083-43.372-16.914-65.292C92.488,100.25,89.596,101.051,90.011,102.936
				L90.011,102.936z"/>
		</g>
	</g>
	<g>
		<g>
			<path d="M205.937,102.138c-4.861,22.057-15.7,42.442-16.914,65.292c-0.417,7.854-0.095,15.896,0.504,23.727
				c0.549,7.18,1.331,15.546,5.616,21.591c1.108,1.564,3.712,0.068,2.59-1.514c-4.475-6.314-4.897-15.284-5.396-22.729
				c-0.506-7.557-0.622-15.265-0.22-22.829c1.158-21.806,12.068-41.664,16.713-62.739
				C209.245,101.051,206.353,100.25,205.937,102.138L205.937,102.138z"/>
		</g>
	</g>
	<g>
		<g>
			<path d="M92.453,104.037c37.479,0,74.958,0,112.438,0c1.935,0,1.935-3,0-3c-37.479,0-74.958,0-112.438,0
				C90.518,101.037,90.518,104.037,92.453,104.037L92.453,104.037z"/>
		</g>
	</g>
	<g>
		<g>
			<path d="M205.833,104c1.935,0,1.935-3,0-3S203.898,104,205.833,104L205.833,104z"/>
		</g>
	</g>
	<g>
		<g>
			<path d="M206.5,104c1.935,0,1.935-3,0-3S204.565,104,206.5,104L206.5,104z"/>
		</g>
	</g>
	<g>
		<g>
			<path d="M77.833,215c48.306,0,96.611,0,144.917,0c1.935,0,1.935-3,0-3c-48.306,0-96.611,0-144.917,0
				C75.898,212,75.898,215,77.833,215L77.833,215z"/>
		</g>
	</g>
	<g>
		<g>
			<path d="M105.25,208.5c28.833,0,57.667,0,86.5,0c1.935,0,1.935-3,0-3c-28.833,0-57.667,0-86.5,0
				C103.315,205.5,103.315,208.5,105.25,208.5L105.25,208.5z"/>
		</g>
	</g>
	<g>
		<g>
			<path d="M108.5,189c27,0,54,0,81,0c1.935,0,1.935-3,0-3c-27,0-54,0-81,0C106.565,186,106.565,189,108.5,189L108.5,189z"/>
		</g>
	</g>
	<g>
		<g>
			<path d="M78.007,212.205c-0.694-0.527-1.305-1.176-1.711-1.962c-0.375-0.726-1.375-0.936-2.052-0.538
				c-0.732,0.429-0.914,1.326-0.539,2.052c0.654,1.264,1.671,2.19,2.789,3.038c0.653,0.496,1.676,0.104,2.052-0.538
				C78.996,213.487,78.657,212.698,78.007,212.205L78.007,212.205z"/>
		</g>
	</g>
	<g>
		<g>
			<path d="M223.757,214.795c1.117-0.848,2.135-1.774,2.788-3.038c0.376-0.726,0.194-1.623-0.538-2.052
				c-0.678-0.397-1.677-0.188-2.052,0.538c-0.407,0.786-1.019,1.435-1.712,1.962c-0.65,0.493-0.989,1.282-0.538,2.052
				C222.081,214.898,223.104,215.291,223.757,214.795L223.757,214.795z"/>
		</g>
	</g>
	<path d="M204.833,102.834c-0.883,0-1.555,0.321-2.034,0.804c-0.685,0.094-1.498,0.097-2.331,0.076
		c-0.332-0.131-0.706-0.213-1.135-0.213c-0.396,0-0.742,0.073-1.054,0.188c-0.334,0.024-0.656,0.093-0.953,0.222
		c-2.033-0.203-4.066-0.549-5.993-0.744c-0.91-0.092-1.596,0.181-2.072,0.645c-7.349-1.365-14.432-0.808-20.739-1.664
		c-4.232-0.574-8.259-0.977-12.521-0.648c-2.329,0.18-4.701,0.604-6.987,1.117c3.756-0.843-4.346-0.78-1.025-0.248
		c-0.705-0.113-1.408-0.178-2.108-0.222c-0.132-0.035-0.258-0.081-0.392-0.112c-8.522-1.977-17.326-0.062-24.154,0.298
		c-1.417,0.075-2.793,0.32-4.107,0.708c-3.043-1.093-6.46-0.838-9.561,0.327c-0.517-0.704-1.318-1.201-2.333-1.201
		c-2.731,0.001-5.449,0.03-8.167,0.333c-0.497,0.056-1.02,0.224-1.492,0.48c-1.766-0.659-4.177,0.233-4.175,2.687
		c0.002,2.479,0.574,4.653,1.599,6.894c0.9,1.971,2.246,3.699,3.008,5.736c0.346,0.925,0.984,1.507,1.717,1.807
		c0.256,1.173,0.658,2.315,1.194,3.411c0.004,2.598,0.619,5.251,1.863,7.723c0.213,0.423,0.376,0.736,0.503,0.972
		c0.032,0.22,0.146,0.68,0.406,1.532c0.635,2.085,0.966,4.268,1.308,6.415c-0.414-2.6,0.346,2.777,0.322,2.582
		c0.376,2.979,0.777,5.956,1.282,8.916c0.423,2.479,1.645,4.607,3.34,6.316c-0.917,4.337-0.357,8.803,1.336,12.772
		c-0.143,1.379-0.114,2.772,0.067,4.124c-0.972,0.404-1.742,1.275-1.78,2.632c-0.031,1.1-0.282,2.254-0.439,3.67
		c-0.156,1.407,0.022,2.864,0.832,4.058c2.017,2.976,5.543,2.314,8.572,1.832c0.625-0.1,1.097-0.371,1.435-0.746
		c3.305,1.338,7.08,1.358,10.772,0.331c-0.334,0.118-0.669,0.237-1.004,0.355c1.569-0.005,3.075-0.244,4.521-0.701
		c0.084,0.008,0.164,0.015,0.241,0.022c3.372,0.626,6.909,1.575,10.238,1.346c1.914-0.132,3.751-0.564,5.449-1.245
		c0.606,0.131,1.217,0.251,1.835,0.348c5.816,0.912,11.659,1.64,17.55,1.731c2.526,0.039,4.993-0.273,7.302-1.023
		c1.197-0.031,2.312-0.186,3.356-0.435c0.124,0.063,0.246,0.13,0.377,0.183c2.699,1.095,5.76,1.067,8.596,0.667
		c1.308-0.185,2.189-1.688,2.202-2.893c0.034-3.229,0.436-6.438,0.167-9.667c-0.06-0.722-0.322-1.308-0.706-1.759
		c0.053-0.853,0.055-1.71-0.019-2.561c1.319-3.06,1.699-6.347,1.139-9.428c0.243-0.671,0.445-1.362,0.55-2.097
		c0.376-2.637,0.986-5.223,1.5-7.834c0.159-0.808,0.275-1.613,0.374-2.42c1.565-2.344,2.467-5.114,2.329-8.068
		c-0.011-0.229-0.025-0.457-0.037-0.687c1.145-1.468,1.986-3.112,2.537-4.928c0.908-2.198,1.25-4.602,1.062-6.973
		c1.469-1.626,2.6-3.614,3.235-5.925c0.389-1.412,0.295-2.869,0.245-4.318c0.8-0.461,1.124-1.307,1.124-2.502v-1
		c0-0.52,0.136-0.963-0.051-1.342c1.168-1.631,2.471-3.254,3.372-5.046C208.602,107.133,208.112,102.834,204.833,102.834z"/>
	<path d="M194.955,208.212c-1.218-1.193-2.729-1.541-4.379-1.655c-0.642-0.045-1.293-0.006-1.936,0.015
		c-0.308,0.01-0.614,0.015-0.922,0.015c-0.126,0-1.024-0.104-0.254,0.021c-0.629-0.102-1.255-0.061-1.815,0.124
		c-7.911,0.609-15.812,1.245-23.757,1.155c-7.193-0.08-14.651,0.679-21.762-0.613c-0.24-0.044-0.471-0.061-0.693-0.055
		c-0.143-0.021-0.282-0.05-0.438-0.053c-10.957-0.232-21.892,1.01-32.833,0c-3.854-0.355-3.819,5.647,0,6
		c10.941,1.01,21.876-0.232,32.833,0c0.059,0.001,0.109-0.012,0.166-0.013c6.913,1.148,13.856,0.575,20.834,0.68
		c8.875,0.133,17.655-0.489,26.5-1.167c0.254-0.02,0.489-0.067,0.71-0.134c0.686,0.041,1.368,0.04,2.077,0.02
		c0.496-0.015,0.99-0.006,1.485,0.024c0.031,0.007,0.077,0.017,0.125,0.026C193.661,214.962,197.663,210.864,194.955,208.212z"/>
	<line fill="none" stroke="#333333" stroke-width="2" stroke-miterlimit="10" x1="107" y1="189" x2="192" y2="189"/>
	<line fill="none" stroke="#333333" stroke-width="2" stroke-miterlimit="10" x1="105" y1="205" x2="194" y2="205"/>
	<g>
		<g>
			<path fill="#333333" d="M106.25,189.625c0.038,5.033-0.504,10.266-2.335,15.014c-0.522,1.355,1.653,1.937,2.17,0.598
				c1.913-4.961,2.454-10.352,2.415-15.611C108.489,188.175,106.239,188.174,106.25,189.625L106.25,189.625z"/>
		</g>
	</g>
	<g>
		<g>
			<path fill="#333333" d="M107.312,190.188c1.451,0,1.451-2.25,0-2.25S105.861,190.188,107.312,190.188L107.312,190.188z"/>
		</g>
	</g>
	<g>
		<g>
			<path fill="#333333" d="M195.085,204.702c-1.461-5.203-2.42-10.361-2.502-15.785c-0.021-1.449-2.271-1.452-2.25,0
				c0.085,5.623,1.066,10.983,2.582,16.383C193.307,206.695,195.478,206.102,195.085,204.702L195.085,204.702z"/>
		</g>
	</g>
	<g>
		<g>
			<path fill="#333333" d="M116.875,201.875c6.82-0.074,13.285-0.33,20.031,0.834c6.688,1.153,13.642,0.854,20.401,0.946
				c6.604,0.089,13.193,0.417,19.799,0.189c5.458-0.188,10.319-0.549,14.262-4.603c5.396-5.547-3.081-14.039-8.484-8.484
				c-2.029,2.085-8.284,1.176-11.138,1.19c-6.085,0.03-12.172-0.276-18.257-0.339c-6.138-0.062-12.091-0.273-18.144-1.318
				c-6.109-1.054-12.313-0.483-18.469-0.416C109.142,189.959,109.133,201.959,116.875,201.875L116.875,201.875z"/>
		</g>
	</g>
	<g>
		<g>
			<path fill="#333333" d="M132.875,200.875c16.459-0.01,32.92-0.223,49.375,0.25c7.743,0.223,7.722-11.778,0-12
				c-16.455-0.473-32.916-0.26-49.375-0.25C125.137,188.88,125.136,200.88,132.875,200.875L132.875,200.875z"/>
		</g>
	</g>
	<g>
		<g>
			<path fill="#333333" d="M187.5,192.625c-25.042,0-50.083,0-75.125,0c-7.738,0-7.738,12,0,12c25.042,0,50.083,0,75.125,0
				C195.238,204.625,195.238,192.625,187.5,192.625L187.5,192.625z"/>
		</g>
	</g>
	<g>
		<g>
			<path fill="#333333" d="M110.097,189.444c-0.046,0.021-0.091,0.04-0.137,0.061c0.478-0.201,0.956-0.403,1.434-0.604
				c-0.075,0.029-0.152,0.048-0.232,0.056c0.532-0.071,1.063-0.143,1.595-0.214c-0.085,0.007-0.17,0.01-0.256,0.008
				c-3.271,0.023-6,2.711-6,6c0,3.253,2.729,6.023,6,6c1.509-0.011,2.309-0.346,3.653-0.944c1.345-0.599,2.383-2.225,2.757-3.586
				c0.426-1.548,0.207-3.237-0.605-4.623c-0.786-1.341-2.086-2.345-3.585-2.758c-0.532-0.071-1.063-0.143-1.595-0.214
				C112.042,188.628,111.033,188.901,110.097,189.444L110.097,189.444z"/>
		</g>
	</g>
	<g>
		<g>
			<path fill="#333333" d="M107.654,202.558c-0.157,0.156-0.314,0.313-0.472,0.471c0.513,0.135,1.026,0.27,1.539,0.404
				c-0.733-1.608,0.76-4.221,0.989-5.884c0.314-2.293,0.505-4.61,0.54-6.924c0.022-1.452-2.218-1.448-2.25,0
				c-0.095,4.364-1.268,8.623-1.125,13c0.016,0.481,0.329,0.977,0.826,1.085c0.463,0.102,0.825,0.15,1.299,0.165
				c1.452,0.045,1.447-2.205,0-2.25c-0.233-0.028-0.467-0.057-0.701-0.085c0.275,0.361,0.551,0.724,0.826,1.085
				c-0.143-4.375,1.03-8.636,1.125-13c-0.75,0-1.5,0-2.25,0c-0.044,2.93-0.219,5.926-1.03,8.749
				c-0.503,1.749-0.975,3.474-0.191,5.193c0.27,0.593,1.03,0.644,1.539,0.404c0.752-0.354,0.871-0.538,1.278-1.279
				C110.296,202.421,108.353,201.286,107.654,202.558L107.654,202.558z"/>
		</g>
	</g>
	<g>
		<g>
			<path fill="#333333" d="M191.875,202.5c-0.875,0-1.75,0-2.625,0c0,0.75,0,1.5,0,2.25c1.172-0.02,2.325-0.266,3.424-0.665
				c0.647-0.235,1.099-1.004,0.673-1.652c-0.33-0.503-0.417-1.117-0.75-1.625c-0.792-1.208-2.741-0.082-1.943,1.135
				c0.33,0.503,0.417,1.117,0.75,1.625c0.225-0.551,0.448-1.102,0.673-1.652c-0.916,0.333-1.849,0.569-2.826,0.585
				c-1.449,0.023-1.452,2.25,0,2.25c0.875,0,1.75,0,2.625,0C193.326,204.75,193.326,202.5,191.875,202.5L191.875,202.5z"/>
		</g>
	</g>
	<g>
		<g>
			<path fill="#333333" d="M189.25,190c-0.008,0.298-0.066,0.553-0.222,0.808c-0.756,1.243,1.19,2.373,1.943,1.135
				c0.36-0.593,0.509-1.254,0.528-1.942C191.54,188.548,189.29,188.552,189.25,190L189.25,190z"/>
		</g>
	</g>
</g>
</svg>
